<?xml version="1.0" standalone="no"?>
<!DOCTYPE svg PUBLIC "-//W3C//DTD SVG 20010904//EN"
 "http://www.w3.org/TR/2001/REC-SVG-20010904/DTD/svg10.dtd">
<svg version="1.0" xmlns="http://www.w3.org/2000/svg"
 width="1536.000000pt" height="1536.000000pt" viewBox="0 0 1536.000000 1536.000000"
 preserveAspectRatio="xMidYMid meet">

<g transform="translate(0.000000,1536.000000) scale(0.100000,-0.100000)"
fill="#000000" stroke="none">
<path d="M0 13815 l0 -1545 22 4 c13 3 49 8 81 11 44 5 64 13 79 30 14 16 36
26 69 30 27 4 51 11 55 16 3 5 16 9 29 9 13 0 27 5 30 10 3 6 26 10 51 10 24
0 44 5 44 11 0 5 16 17 35 25 36 15 41 28 36 95 -1 20 6 29 41 47 24 11 68 25
98 31 123 22 160 34 165 51 3 9 7 51 9 93 l4 76 67 80 c43 52 77 83 93 87 15
4 36 14 47 24 29 25 84 50 98 44 7 -2 30 5 52 16 35 18 41 18 62 5 25 -17 55
-19 68 -6 15 15 115 26 115 13 0 -16 57 6 73 27 7 10 31 20 56 24 27 3 53 15
70 31 19 18 45 29 84 36 55 9 128 7 146 -4 5 -3 23 1 40 10 18 9 39 13 47 10
9 -3 23 -2 33 3 16 9 73 0 133 -21 14 -5 58 -41 97 -79 47 -45 80 -69 95 -69
13 0 40 -11 60 -25 20 -14 40 -25 44 -25 12 0 72 -58 72 -69 0 -6 13 -30 30
-53 28 -41 43 -89 70 -225 l12 -62 37 16 c127 55 170 58 286 17 154 -53 203
-76 223 -104 12 -16 37 -36 56 -45 23 -11 41 -32 61 -71 15 -30 31 -57 36 -60
4 -2 33 -45 64 -94 49 -81 55 -94 49 -129 -4 -24 -2 -41 5 -45 6 -4 11 -23 11
-42 0 -19 4 -34 9 -34 15 0 32 -64 33 -121 0 -32 14 -94 35 -158 19 -58 36
-119 39 -136 7 -57 47 -103 64 -74 14 22 149 28 240 11 30 -6 71 -13 90 -15
19 -3 43 -8 53 -12 10 -4 32 0 52 9 19 10 39 15 44 12 4 -3 22 -1 39 3 27 8
33 6 47 -15 10 -15 21 -22 28 -17 23 14 37 11 37 -8 0 -21 37 -41 55 -31 6 4
15 7 20 7 13 1 47 14 65 26 31 18 85 47 93 48 4 1 8 1 10 2 1 0 18 2 36 5 19
2 46 11 59 20 14 9 31 12 40 8 22 -9 39 -14 85 -21 20 -3 37 -9 37 -14 0 -5
35 -8 78 -7 67 1 80 4 100 25 12 14 24 32 25 41 5 32 16 38 69 39 35 1 56 7
64 17 6 9 16 16 22 16 6 0 15 6 19 13 4 8 31 24 58 37 28 12 58 26 67 31 9 4
46 11 82 15 37 4 67 12 70 19 2 7 20 12 43 11 30 -2 47 -11 78 -42 21 -21 38
-42 37 -46 -1 -5 2 -8 7 -8 5 0 11 -9 14 -21 4 -13 10 -18 18 -13 8 4 10 3 5
-4 -13 -21 13 -54 38 -48 29 7 63 -3 70 -21 4 -9 1 -12 -7 -8 -6 4 -3 0 8 -9
11 -8 26 -21 34 -27 7 -7 36 -12 65 -13 35 -1 50 -5 48 -13 -1 -8 8 -13 23
-13 17 0 25 6 25 18 0 12 2 14 8 4 11 -17 42 -4 35 14 -3 8 1 14 10 14 21 0
40 62 32 101 -5 21 -3 34 5 39 7 4 13 26 14 49 1 35 4 41 26 45 46 9 195 1
217 -12 12 -7 30 -12 41 -12 30 0 96 -58 105 -92 7 -27 11 -30 39 -24 17 3 43
6 59 6 19 0 29 5 29 15 0 8 9 15 20 15 11 0 20 4 20 9 0 5 15 15 34 21 19 6
40 17 46 25 8 10 21 13 37 9 13 -4 36 -1 49 7 20 10 27 10 33 1 10 -17 71 -4
71 15 0 7 7 16 15 19 8 4 15 12 15 20 0 21 30 32 85 32 90 0 95 1 95 21 0 10
6 23 13 28 18 15 66 21 70 9 2 -7 18 -6 48 4 24 7 47 13 51 12 4 -1 5 5 2 13
-5 11 -1 14 12 9 17 -6 17 -5 -1 9 -11 9 -25 17 -31 17 -7 0 -14 10 -18 22 -5
21 -6 21 -18 6 -8 -11 -18 -15 -26 -9 -11 7 -11 16 -1 52 7 24 19 52 28 62 8
10 16 25 17 34 4 25 25 33 82 29 29 -2 52 1 52 6 0 6 7 7 15 4 9 -3 34 1 57 9
36 12 46 12 77 -1 20 -8 37 -11 39 -6 4 14 52 1 52 -14 0 -15 12 -19 23 -8 8
8 69 14 222 20 202 8 204 8 228 -14 30 -28 112 -62 148 -62 27 0 97 -12 238
-41 30 -6 63 -13 75 -15 117 -20 193 -37 203 -46 7 -6 13 -7 13 -2 0 5 48 10
108 11 183 3 178 2 229 49 65 61 105 71 193 52 25 -6 64 -10 86 -9 23 1 58 -6
78 -14 20 -8 36 -12 36 -7 0 4 19 7 43 6 23 -1 49 2 57 6 8 5 35 9 60 11 25 1
50 6 55 9 6 4 32 10 58 14 27 3 61 12 75 20 65 33 120 55 156 62 22 4 50 13
64 20 13 7 31 10 38 7 7 -3 21 2 29 11 16 15 46 21 90 18 16 -2 17 0 5 8 -12
8 -10 10 10 11 14 1 32 1 40 0 70 -8 80 -7 80 4 0 8 16 12 48 11 26 -1 62 1
80 5 17 4 32 3 32 -1 0 -4 21 -11 48 -15 75 -10 92 -16 92 -31 0 -8 9 -14 20
-14 11 0 20 -4 20 -10 0 -14 37 -13 42 1 3 9 9 9 25 1 25 -14 34 -6 27 23 -4
15 -1 22 10 22 9 0 16 -4 16 -8 0 -5 12 -7 28 -7 15 1 38 -1 52 -6 19 -5 21
-5 10 3 -13 9 -13 11 3 11 9 0 17 7 17 15 0 10 -10 15 -27 15 -16 0 -35 5 -43
10 -13 9 -12 12 4 25 11 8 15 15 9 15 -5 0 -8 10 -6 23 5 25 38 34 60 15 10
-8 18 -7 31 5 9 8 28 17 42 19 15 2 26 11 28 23 7 35 22 46 45 34 18 -10 19
-9 14 10 -3 11 -1 24 4 27 5 3 9 -2 9 -11 0 -10 9 -15 28 -14 26 1 83 -5 127
-15 11 -2 37 -12 59 -21 34 -15 40 -15 55 -1 10 9 39 16 69 17 29 1 52 5 52 8
0 3 14 7 32 8 53 4 158 64 158 91 0 19 54 49 110 63 30 7 60 17 67 22 7 5 21
6 32 2 10 -3 22 -1 26 5 3 6 10 8 15 5 10 -6 50 42 50 60 0 14 22 25 49 25 9
0 30 13 46 30 15 16 32 27 37 24 4 -3 8 0 8 7 0 7 7 4 15 -7 19 -25 19 -71 0
-90 -8 -9 -15 -27 -15 -42 0 -24 4 -27 36 -28 20 0 39 -6 43 -13 12 -19 22 15
15 46 -5 17 -3 24 4 19 6 -4 8 2 5 14 -5 18 -2 20 21 16 23 -4 26 -1 26 22 0
61 107 174 210 225 36 17 71 37 78 44 7 7 16 13 18 13 13 0 64 -32 64 -40 0
-5 16 1 35 15 20 13 39 25 43 27 4 2 14 16 22 33 9 16 26 35 39 41 29 15 70
63 71 84 1 28 67 90 102 96 18 4 40 13 49 21 11 9 31 12 65 8 97 -12 108 -11
119 11 20 40 37 54 59 49 19 -5 118 23 133 38 3 4 25 7 47 7 45 0 86 -22 86
-46 0 -8 9 -14 21 -14 11 0 32 -13 47 -29 l25 -30 41 32 c71 56 120 75 221 84
33 2 67 11 77 20 14 13 21 12 57 -6 22 -12 49 -21 60 -21 11 0 46 -13 78 -30
31 -16 62 -30 68 -30 5 0 33 -25 61 -55 31 -33 60 -55 73 -55 21 0 61 -32 61
-50 0 -5 14 -16 30 -25 17 -9 30 -20 30 -26 0 -6 20 -34 45 -62 25 -29 45 -62
45 -74 0 -12 7 -28 16 -35 9 -7 30 -25 46 -40 16 -16 40 -28 53 -28 16 0 34
-13 52 -35 15 -19 33 -35 38 -35 6 0 18 -15 28 -32 41 -75 33 -72 149 -52 57
10 107 24 111 31 9 15 44 17 49 3 2 -6 21 -13 43 -17 77 -11 179 -139 197
-247 17 -105 13 -301 -7 -347 -14 -30 -15 -42 -6 -53 10 -11 8 -18 -6 -33 -10
-10 -32 -38 -48 -62 -16 -23 -39 -47 -50 -51 -11 -4 -27 -15 -34 -24 -7 -9
-20 -16 -29 -16 -8 0 -29 -10 -46 -23 -17 -13 -60 -31 -96 -40 -36 -9 -75 -19
-86 -22 -16 -5 -23 -2 -26 12 -4 15 -13 19 -36 17 -46 -3 -92 -34 -134 -90
-30 -39 -38 -58 -38 -92 0 -39 -6 -50 -66 -115 -97 -106 -145 -146 -182 -153
-35 -7 -69 -45 -81 -92 -5 -19 -23 -36 -62 -57 -31 -16 -78 -47 -106 -68 -28
-20 -56 -37 -63 -37 -6 0 -41 -12 -78 -27 -68 -27 -74 -27 -162 3 -23 8 -94
-59 -129 -121 -34 -61 -93 -105 -139 -105 -15 0 -47 -9 -70 -20 -22 -11 -45
-20 -50 -20 -5 0 -33 -13 -63 -29 -30 -17 -77 -35 -104 -41 -28 -6 -57 -13
-66 -16 -16 -4 -59 26 -59 43 0 5 -16 28 -35 50 -28 33 -43 41 -79 46 -25 4
-63 18 -84 32 -45 30 -69 25 -134 -26 -21 -17 -44 -29 -51 -26 -7 2 -23 38
-36 78 -17 52 -33 83 -56 104 -46 42 -91 75 -104 75 -6 0 -20 18 -31 39 -26
52 -39 59 -62 31 -23 -28 -23 -35 3 -61 13 -13 27 -18 40 -14 16 5 19 2 19
-27 -1 -18 -7 -60 -15 -93 -15 -62 -41 -95 -76 -95 -22 0 -106 38 -115 51 -8
14 -57 10 -81 -6 -13 -9 -24 -31 -28 -55 -4 -22 -15 -50 -24 -62 -10 -13 -28
-43 -41 -68 -12 -24 -33 -53 -46 -63 -42 -33 -45 -49 -23 -128 23 -82 21 -154
-5 -204 -18 -33 -21 -81 -7 -90 6 -3 19 4 30 16 16 18 23 20 35 10 8 -7 29 -9
52 -6 38 6 41 4 94 -54 30 -34 55 -69 55 -78 1 -10 5 -37 9 -60 l9 -43 46 0
c26 0 52 5 58 11 8 8 28 7 75 -6 34 -9 86 -22 113 -27 46 -10 92 -30 185 -81
45 -24 78 -55 86 -79 3 -10 12 -18 20 -18 21 0 94 -75 94 -97 0 -11 10 -25 23
-30 18 -8 30 -32 51 -99 16 -49 38 -100 51 -114 12 -14 25 -33 28 -42 7 -19
-24 -101 -42 -112 -6 -4 -11 -28 -11 -53 0 -43 -18 -94 -71 -195 l-20 -37 39
-20 c21 -11 46 -31 56 -45 9 -14 23 -26 30 -26 15 0 26 -21 26 -49 0 -10 16
-32 35 -49 21 -20 37 -45 41 -68 6 -34 8 -36 38 -30 96 19 120 18 146 -6 14
-13 46 -36 71 -50 25 -15 58 -43 74 -63 15 -20 39 -41 54 -46 30 -11 84 -94
96 -148 15 -71 123 -291 143 -291 4 0 32 -31 62 -70 30 -38 60 -70 67 -70 18
0 24 -15 44 -104 14 -61 17 -103 12 -171 -5 -73 -3 -97 11 -122 21 -41 21 -38
-14 -53 -21 -9 -33 -23 -39 -46 -5 -19 -21 -48 -35 -65 -15 -17 -26 -43 -26
-60 0 -29 0 -29 -57 -28 -70 2 -106 -11 -129 -46 -9 -14 -23 -25 -31 -25 -21
0 -165 72 -186 93 -16 16 -28 17 -89 11 -39 -4 -83 -13 -97 -20 -32 -17 -53
-18 -70 -1 -10 10 -14 9 -22 -5 -14 -26 -92 -24 -134 2 -46 28 -77 15 -109
-48 -25 -50 -81 -101 -113 -104 -42 -3 -52 6 -96 81 -26 44 -51 82 -57 86 -5
3 -10 21 -10 38 0 52 -7 56 -78 41 -35 -7 -71 -19 -79 -25 -17 -15 -107 -31
-179 -33 -28 0 -58 -7 -67 -14 -12 -10 -24 -11 -56 -2 -23 6 -41 15 -41 20 0
5 -7 7 -15 4 -8 -4 -15 -1 -15 6 0 17 -41 1 -67 -26 -12 -13 -31 -24 -43 -24
-11 0 -20 -7 -20 -15 0 -8 -9 -19 -21 -25 -19 -11 -43 0 -69 31 -7 8 -81 24
-103 21 -10 -1 -36 -21 -59 -44 -25 -27 -42 -38 -45 -30 -3 6 -10 12 -16 12
-7 0 -23 16 -37 35 -25 34 -64 55 -104 55 -22 1 -59 24 -51 32 3 3 -1 11 -10
18 -8 7 -15 26 -15 42 0 21 -13 42 -50 79 -45 47 -52 51 -84 45 -31 -6 -34 -5
-29 14 4 13 -1 26 -11 33 -17 12 -13 47 5 47 16 0 59 79 59 110 0 28 29 70 49
70 20 0 17 27 -7 58 -18 23 -30 31 -43 27 -14 -5 -18 -2 -16 12 4 23 22 55 30
54 4 -1 9 -1 11 -1 3 0 -2 16 -10 36 -19 46 -12 77 21 92 14 6 25 16 25 22 0
6 -5 8 -11 4 -6 -3 -14 -2 -18 4 -11 18 -81 19 -81 1 0 -7 -24 -42 -54 -78
-29 -37 -63 -85 -74 -107 -13 -26 -31 -44 -54 -53 -35 -13 -68 -68 -68 -110 0
-11 -5 -32 -12 -48 -6 -15 -12 -33 -12 -39 -1 -6 -9 -18 -18 -28 -17 -16 -22
-35 -19 -63 1 -7 -3 -13 -9 -13 -5 0 -10 -19 -10 -43 0 -23 -7 -53 -16 -65 -9
-13 -13 -29 -10 -37 3 -8 1 -17 -4 -20 -20 -12 4 -122 25 -118 15 3 55 -38 55
-57 0 -32 -98 -88 -126 -72 -13 7 -23 2 -44 -21 l-26 -30 -80 36 c-74 33 -198
70 -289 86 -54 10 -82 29 -89 61 -3 15 -17 41 -31 58 -26 31 -27 31 -62 17
-19 -8 -57 -15 -83 -15 -35 0 -57 -7 -86 -27 -32 -22 -55 -28 -124 -33 -69 -6
-96 -13 -143 -38 -32 -18 -64 -32 -71 -32 -7 0 -32 -13 -54 -30 -23 -16 -45
-30 -49 -30 -21 0 -68 52 -79 86 -12 38 -12 37 -13 -43 -1 -86 -11 -107 -39
-80 -13 14 -14 23 -4 54 19 63 21 120 6 140 -17 22 -18 47 -2 37 8 -5 9 -2 5
10 -4 10 -7 22 -7 27 0 6 -4 8 -8 5 -11 -7 -65 169 -58 191 7 23 -8 48 -23 39
-15 -10 -14 16 3 39 19 29 2 155 -29 219 -17 34 -22 53 -15 61 6 7 10 52 10
101 -1 49 0 111 1 137 2 61 -6 69 -21 20 -29 -97 -58 -109 -32 -14 l16 59 -37
73 c-44 91 -82 204 -109 329 -16 76 -20 131 -20 280 -1 297 2 422 8 469 l7 44
19 -24 19 -24 -6 60 c-9 88 -31 177 -97 394 -37 123 -55 197 -48 201 14 8 -84
204 -181 360 -83 135 -118 175 -249 289 -47 41 -121 110 -166 155 -61 61 -95
87 -140 105 -32 13 -102 44 -155 68 -53 23 -108 43 -123 43 -14 0 -26 4 -26 9
0 12 -77 44 -181 75 -77 24 -92 25 -139 15 -43 -9 -59 -8 -89 4 -46 20 -198
33 -366 32 -120 -1 -139 -4 -245 -37 -63 -19 -142 -41 -175 -48 -67 -14 -329
-132 -404 -182 -211 -143 -395 -303 -501 -437 -114 -142 -138 -183 -175 -291
-19 -54 -48 -122 -65 -150 -16 -28 -30 -53 -30 -56 0 -4 -11 -19 -25 -36 -14
-16 -25 -36 -25 -45 0 -22 -29 -108 -59 -173 -13 -30 -25 -72 -25 -92 -1 -21
-3 -38 -6 -38 -10 0 -29 -55 -35 -102 -7 -44 -5 -48 18 -59 14 -6 28 -18 31
-25 6 -16 -20 -110 -40 -141 -8 -13 -22 -35 -31 -50 -17 -27 -17 -27 0 -14 21
16 21 15 3 -62 -8 -34 -23 -98 -32 -142 -9 -44 -22 -91 -29 -105 -7 -14 -16
-47 -19 -73 -10 -67 -26 -102 -88 -188 -30 -41 -58 -84 -62 -95 -10 -25 -27
-122 -26 -155 0 -15 -8 -33 -17 -40 -16 -13 -17 -12 -4 4 10 13 10 17 1 17 -9
0 -9 4 1 17 12 14 12 16 -1 11 -8 -2 -21 -16 -30 -31 -8 -15 -34 -43 -57 -63
-41 -34 -63 -72 -25 -43 13 11 12 8 -3 -11 -11 -14 -24 -28 -30 -32 -6 -5 -6
-8 -1 -8 6 0 -5 -16 -24 -35 -19 -19 -29 -35 -23 -35 12 0 75 49 82 63 7 17
44 46 53 41 4 -3 8 1 8 9 0 8 10 17 22 20 30 8 33 3 11 -19 -31 -31 -55 -74
-51 -92 3 -13 8 -10 21 13 24 44 76 102 77 86 0 -15 -40 -87 -75 -136 -31 -42
-95 -174 -95 -195 0 -10 -7 -23 -15 -30 -8 -7 -15 -24 -15 -37 0 -14 -11 -71
-24 -127 -14 -56 -27 -147 -30 -206 -3 -58 -5 -108 -5 -112 -2 -15 -21 -8 -21
8 0 8 -4 13 -9 10 -5 -4 -7 11 -5 31 3 21 0 58 -5 83 -9 40 -9 37 -5 -27 4
-40 3 -73 0 -73 -3 0 -17 22 -31 50 -26 51 -32 89 -16 106 12 13 35 103 28
110 -3 4 -14 -20 -24 -52 l-18 -59 -6 70 c-5 69 -6 68 -7 -29 l-2 -99 46 -91
c37 -73 49 -109 60 -186 7 -52 20 -120 29 -150 17 -62 20 -114 6 -91 -8 12
-19 12 -73 1 -50 -11 -71 -22 -102 -52 -55 -54 -90 -48 -125 20 -25 48 -77 96
-119 110 -42 14 -85 -5 -106 -46 -8 -16 -32 -40 -54 -54 -34 -23 -44 -25 -78
-17 -25 6 -75 5 -139 -3 -87 -10 -104 -15 -129 -39 -15 -15 -41 -33 -57 -39
-16 -7 -29 -16 -29 -21 0 -5 -13 -15 -30 -24 -27 -14 -32 -14 -54 0 -29 19
-76 107 -76 143 0 14 -11 44 -24 66 -19 32 -24 55 -23 105 0 62 1 64 33 77 18
8 52 14 75 14 l42 0 -6 46 c-2 26 -10 50 -17 54 -9 6 -11 31 -8 89 5 79 4 81
-16 75 -22 -7 -35 -21 -37 -41 -3 -22 -4 -27 -18 -51 -10 -19 -19 -23 -46 -20
-27 3 -35 0 -40 -17 -6 -18 -8 -18 -12 -2 -5 18 -23 24 -23 7 0 -5 -8 -10 -19
-10 -10 0 -26 -11 -34 -24 -14 -20 -29 -25 -109 -35 -151 -18 -241 -2 -267 47
-17 31 -15 134 4 192 10 30 24 74 31 98 15 46 18 69 7 59 -3 -4 -16 2 -29 14
-12 11 -36 21 -52 21 -17 1 -29 4 -27 8 3 4 -4 15 -14 24 -17 15 -19 15 -36
-4 -11 -12 -13 -20 -6 -20 7 0 9 -5 6 -10 -3 -6 -17 -8 -31 -6 -14 3 -24 0
-24 -7 0 -20 -43 -117 -52 -117 -4 0 -8 -6 -8 -13 0 -8 -16 -18 -35 -24 -30
-9 -38 -8 -59 8 -25 20 -25 20 -63 -5 -30 -20 -48 -25 -86 -22 -43 2 -53 -1
-78 -26 -28 -29 -56 -30 -45 -2 4 11 -1 13 -20 8 -23 -6 -25 -4 -19 22 l6 29
-16 -27 c-27 -48 -77 -35 -105 27 -11 24 -32 56 -47 72 -16 15 -28 33 -29 38
-1 29 -17 64 -27 58 -6 -4 -8 0 -4 9 4 12 -5 17 -44 20 -53 5 -87 30 -81 60 4
21 -15 33 -32 19 -7 -6 -21 -9 -30 -5 -13 5 -16 -1 -16 -35 0 -34 -3 -41 -20
-41 -11 0 -20 -5 -20 -11 0 -17 -24 -36 -74 -59 -51 -25 -103 -83 -112 -127
-4 -20 1 -38 19 -64 24 -35 77 -220 77 -267 0 -71 -69 -148 -140 -157 -25 -3
-74 -13 -110 -23 -63 -16 -72 -18 -96 -21 -12 -1 -34 -88 -36 -146 -2 -48 -14
-78 -67 -170 -49 -83 -54 -140 -19 -230 19 -50 20 -62 10 -101 -7 -24 -12 -62
-12 -85 0 -35 -6 -46 -53 -92 -29 -29 -67 -74 -85 -100 -72 -106 -89 -133
-101 -164 -16 -40 -36 -47 -130 -48 -55 0 -76 -4 -82 -15 -21 -41 -39 -90 -39
-107 -1 -32 -36 -99 -88 -165 -27 -34 -55 -82 -61 -104 -13 -47 -49 -70 -93
-59 -26 7 -99 -23 -113 -45 -4 -6 -22 -17 -41 -25 -19 -8 -34 -19 -34 -24 0
-23 -39 -32 -75 -17 -27 12 -41 27 -60 68 -27 58 -31 92 -14 147 19 62 2 99
-74 160 -71 57 -74 61 -98 189 -9 49 -9 66 0 75 17 17 135 10 173 -9 28 -14
32 -14 46 0 14 14 12 19 -29 56 -28 25 -80 55 -144 81 -55 23 -113 47 -130 54
-83 36 -109 45 -131 45 -31 0 -60 33 -79 89 -21 65 -59 117 -99 136 -18 9 -59
41 -90 72 l-56 56 0 -2453 0 -2452 38 27 c20 15 62 53 92 84 31 31 111 109
177 174 l122 119 30 -18 c30 -18 30 -18 53 7 48 51 98 127 98 148 0 21 1 21
25 5 13 -9 30 -14 37 -11 8 4 6 6 -4 6 -12 1 -18 9 -18 25 0 18 7 25 30 30 18
3 30 12 30 21 0 9 9 15 25 15 14 0 30 9 37 19 6 10 18 17 25 14 8 -3 20 2 27
12 11 15 14 15 25 2 10 -13 17 -12 51 11 22 14 40 33 40 43 0 24 20 37 68 45
26 4 42 12 42 21 0 7 7 16 15 19 8 4 15 11 15 18 0 6 19 19 43 29 35 14 49 15
75 6 40 -14 57 -8 74 27 35 75 156 95 294 49 109 -36 138 -37 234 -5 68 23 87
26 93 15 5 -10 13 -11 37 -2 23 9 33 8 47 -4 26 -23 82 -46 128 -54 92 -17
285 -144 285 -189 0 -7 9 -25 20 -39 11 -14 20 -33 20 -42 0 -44 63 -85 110
-70 17 5 23 -1 39 -39 15 -35 29 -50 62 -65 24 -12 54 -21 68 -21 34 0 48 -10
60 -43 9 -22 17 -27 45 -27 19 0 37 -4 40 -9 3 -5 26 -18 52 -30 32 -16 49
-31 59 -55 8 -19 26 -42 39 -52 38 -29 94 -143 89 -180 -4 -27 3 -40 46 -88
29 -32 51 -66 51 -79 1 -29 36 -107 49 -107 26 0 45 -53 43 -116 -3 -61 -2
-63 28 -79 17 -9 36 -27 42 -41 14 -30 27 -27 48 12 9 16 24 30 32 32 23 4 51
-63 44 -106 -7 -44 5 -66 44 -82 19 -8 32 -22 36 -39 11 -52 27 -82 59 -110
51 -45 54 -55 43 -166 -5 -55 -11 -112 -11 -127 -1 -14 -6 -26 -12 -25 -5 1
-9 -5 -7 -13 11 -48 10 -85 -4 -170 -26 -162 -29 -167 -82 -194 -26 -13 -75
-26 -109 -29 -49 -5 -86 -19 -179 -67 -65 -34 -125 -59 -135 -57 -10 3 -20 0
-22 -6 -7 -21 -68 -34 -110 -23 -34 9 -40 8 -50 -9 -21 -38 -56 -65 -84 -65
-43 0 -70 25 -88 83 -10 28 -28 75 -41 104 -34 73 -31 102 12 144 39 37 39 40
18 186 -5 36 -1 50 29 100 25 42 38 80 47 136 12 75 12 79 -8 99 l-20 21 -24
-25 c-12 -14 -34 -42 -48 -62 -14 -20 -42 -46 -62 -56 -20 -11 -39 -24 -43
-30 -10 -16 -40 -12 -69 11 -24 19 -35 21 -84 14 -31 -4 -72 -7 -90 -6 -20 1
-53 -9 -80 -24 -31 -18 -72 -30 -122 -36 -41 -4 -95 -13 -120 -18 -48 -10
-100 -5 -100 10 0 15 -82 100 -111 115 -16 8 -39 14 -52 14 -14 0 -44 7 -68
15 -63 22 -124 0 -197 -72 -63 -61 -80 -63 -140 -15 -85 68 -109 79 -189 85
-43 3 -94 13 -113 20 -29 13 -40 13 -79 1 -69 -21 -108 -18 -146 12 -30 23
-40 25 -87 19 -50 -5 -56 -4 -97 30 -58 46 -92 45 -146 -6 -11 -11 -52 -44
-92 -73 -66 -50 -76 -55 -130 -57 -32 -1 -94 2 -138 6 -88 9 -95 9 -143 4
l-32 -3 0 -463 0 -463 6324 0 6325 0 -8 28 c-5 15 -15 44 -24 64 -15 36 -17
38 -59 34 -24 -2 -60 -7 -81 -11 -30 -6 -49 -3 -87 15 -49 23 -97 83 -197 243
-17 29 -43 67 -57 86 -28 36 -49 101 -44 129 2 9 18 22 36 28 44 14 53 25 58
70 14 125 18 138 52 160 28 19 36 21 64 11 17 -7 49 -29 72 -49 22 -21 44 -38
48 -38 4 0 10 12 13 28 4 15 10 45 15 66 10 45 -9 106 -33 106 -8 0 -20 7 -27
15 -21 26 -71 18 -125 -20 -84 -57 -145 -85 -191 -85 -59 0 -69 -5 -109 -61
-24 -34 -42 -49 -57 -49 -32 0 -121 -47 -164 -86 -20 -19 -40 -31 -45 -29 -4
3 -6 -12 -3 -32 4 -40 -29 97 -126 512 -61 261 -78 345 -156 760 -25 138 -80
419 -122 625 -41 206 -87 445 -103 530 -15 85 -41 211 -57 280 -40 165 -93
440 -132 675 -36 218 -85 418 -128 521 -37 93 -94 194 -124 220 -53 49 -229
164 -251 164 -12 0 -29 6 -37 13 -7 6 -4 -5 8 -25 16 -28 17 -36 6 -31 -15 6
-39 50 -36 66 1 4 -17 16 -40 26 -38 16 -82 29 -272 82 -26 7 -35 14 -28 21
14 14 97 -4 252 -54 148 -48 178 -62 293 -141 145 -99 212 -193 276 -385 50
-150 74 -263 105 -494 14 -103 47 -283 75 -400 76 -323 128 -554 146 -648 29
-151 33 -160 62 -160 17 0 39 -14 64 -40 33 -33 42 -38 57 -29 14 9 30 5 77
-21 33 -17 70 -45 83 -61 13 -16 32 -29 42 -29 27 0 50 -11 50 -24 0 -6 18
-18 39 -27 23 -10 52 -34 70 -60 27 -36 96 -82 119 -77 11 2 46 -14 64 -30 25
-21 64 -8 120 43 59 53 122 75 229 81 44 2 99 9 121 14 23 7 68 8 108 4 59 -6
69 -9 74 -28 5 -21 62 -56 90 -56 18 0 50 -38 71 -82 9 -21 21 -38 26 -38 14
0 59 -77 59 -101 0 -12 18 -39 40 -61 27 -27 40 -49 40 -67 0 -51 33 -67 139
-69 101 -2 144 -16 149 -47 6 -29 30 -53 67 -65 38 -13 55 -48 55 -116 0 -23
9 -64 20 -90 13 -28 25 -89 31 -153 5 -58 14 -116 19 -129 8 -17 4 -35 -17
-76 l-26 -54 21 -66 c12 -36 25 -90 28 -119 7 -56 7 -56 -45 -95 -21 -16 -23
-23 -16 -69 6 -44 11 -53 36 -63 16 -7 44 -9 62 -6 45 8 97 -3 104 -23 3 -9
22 -52 43 -97 43 -92 56 -147 66 -262 7 -78 6 -83 -36 -185 -37 -93 -48 -110
-96 -152 -30 -25 -54 -54 -54 -64 0 -10 15 -35 34 -55 l35 -36 612 2 613 3 6
26 c10 36 41 100 61 127 10 13 25 49 34 80 9 31 32 76 51 99 19 23 34 44 34
47 0 4 17 43 39 89 56 120 103 147 259 147 l82 0 0 3139 0 3139 -29 10 c-37
13 -55 0 -71 -53 -20 -64 -48 -103 -83 -114 -36 -12 -56 -8 -166 38 -106 43
-122 45 -178 21 -44 -19 -52 -27 -89 -101 l-42 -80 22 -27 c37 -46 96 -193 96
-236 -1 -29 -73 -106 -99 -106 -12 0 -43 16 -68 35 -38 29 -54 35 -94 35 -36
0 -55 6 -76 24 -29 24 -53 82 -53 125 0 12 -7 36 -16 53 -16 30 -17 31 -74 25
l-58 -6 -47 52 c-25 28 -60 66 -77 83 -26 26 -30 38 -26 65 9 56 -13 79 -42
44 -7 -8 -18 -15 -25 -15 -18 0 -28 30 -15 45 7 8 4 19 -10 35 -24 27 -26 46
-5 54 20 7 19 42 -5 130 -15 57 -17 81 -9 103 7 20 6 38 -1 57 -15 40 -13 47
15 40 17 -4 26 -2 29 7 2 8 9 34 16 59 8 25 29 69 48 98 l34 54 -17 39 c-15
31 -15 41 -5 54 7 8 19 15 26 15 10 0 14 13 14 39 0 34 6 44 40 71 26 20 40
40 40 55 0 12 7 28 15 35 8 7 15 17 15 22 0 18 41 63 63 68 12 3 24 15 25 25
2 11 11 28 19 37 8 9 12 21 9 26 -7 11 63 92 79 92 7 0 24 9 38 20 16 13 40
20 64 20 21 -1 57 2 81 5 34 4 50 0 84 -21 40 -25 42 -26 55 -8 7 10 13 25 13
33 1 22 68 63 90 56 12 -4 24 2 33 15 8 11 29 25 47 30 27 8 40 6 66 -11 19
-11 38 -18 43 -15 15 10 158 -60 173 -83 7 -12 23 -21 35 -21 12 0 25 -4 28
-10 3 -5 10 -10 16 -10 5 0 9 1382 9 3665 l0 3665 -7680 0 -7680 0 0 -1545z
m7628 -2474 c8 -5 12 -17 10 -27 -3 -15 -6 -14 -21 9 -18 27 -13 34 11 18z
m-18 -48 c0 -13 -3 -13 -15 -3 -8 7 -12 16 -9 21 8 13 24 1 24 -18z m575 -33
c8 -13 -15 -13 -35 0 -12 8 -11 10 7 10 12 0 25 -4 28 -10z m-116 -14 c-2 -2
-24 -6 -48 -9 -29 -4 -40 -2 -30 4 13 8 88 14 78 5z m496 -164 c-3 -3 -11 0
-18 7 -9 10 -8 11 6 5 10 -3 15 -9 12 -12z m-2192 -226 c-21 -19 -42 -35 -48
-35 -5 0 10 17 35 38 56 48 66 46 13 -3z m2536 -85 c49 -43 50 -75 1 -39 -16
12 -27 25 -24 30 3 4 0 8 -6 8 -6 0 -9 4 -5 9 3 6 -3 14 -12 20 -10 6 -13 10
-8 10 6 0 30 -17 54 -38z m-2639 15 c0 -2 -8 -10 -17 -17 -16 -13 -17 -12 -4
4 13 16 21 21 21 13z m2590 -6 c0 -5 -7 -7 -15 -4 -8 4 -15 8 -15 10 0 2 7 4
15 4 8 0 15 -4 15 -10z m-2599 -48 c-5 -10 -17 -25 -26 -32 -9 -7 -22 -28 -30
-47 -8 -18 -19 -33 -24 -33 -20 0 -11 18 35 74 46 57 63 71 45 38z m2784 -197
c1 -23 -1 -31 -6 -23 -10 15 -12 74 -3 65 4 -3 8 -22 9 -42z m74 -69 c17 -29
31 -57 31 -62 0 -12 -35 40 -61 90 -30 57 -5 34 30 -28z m41 -204 c0 -7 -4
-10 -10 -7 -5 3 -10 16 -10 28 0 18 2 19 10 7 5 -8 10 -21 10 -28z m53 -122
c32 -62 48 -162 23 -141 -8 7 -18 25 -21 41 -4 16 -20 63 -36 105 -16 42 -29
78 -29 81 0 14 39 -39 63 -86z m82 -297 c3 -19 4 -37 1 -40 -5 -5 -46 83 -46
100 0 24 39 -27 45 -60z m-67 -24 c-3 -8 -7 -3 -11 10 -4 17 -3 21 5 13 5 -5
8 -16 6 -23z m112 -164 c0 -24 -2 -27 -11 -15 -7 11 -8 4 -4 -25 5 -35 5 -38
-7 -20 -19 29 -58 128 -58 145 0 13 1 13 10 0 8 -13 10 -13 10 2 0 9 -4 20
-10 23 -5 3 -10 14 -10 23 0 9 18 -10 40 -43 25 -37 40 -72 40 -90z m-53 -187
c-3 -7 -5 -2 -5 12 0 14 2 19 5 13 2 -7 2 -19 0 -25z m-3520 -125 c-13 -43
-32 -114 -42 -157 -19 -87 -39 -141 -55 -151 -17 -10 -12 22 20 132 17 57 30
109 30 115 0 6 8 20 18 31 9 11 11 17 5 13 -7 -4 -13 -2 -13 4 0 6 6 13 14 16
8 3 12 13 9 25 -3 10 -1 19 5 19 6 0 14 9 17 21 4 11 9 18 12 15 3 -2 -6 -40
-20 -83z m3456 -340 c3 -16 15 -66 26 -113 21 -86 28 -179 12 -150 -7 12 -36
155 -56 273 -6 36 11 26 18 -10z m-3677 -177 c-18 -47 -68 -102 -84 -92 -6 3
-13 0 -15 -6 -3 -8 -6 -8 -6 -2 -2 20 112 167 118 152 2 -5 -4 -29 -13 -52z
m3811 -108 c-3 -8 -6 -5 -6 6 -1 11 2 17 5 13 3 -3 4 -12 1 -19z m-3907 -52
c-16 -48 -35 -60 -27 -16 7 33 26 64 34 56 3 -3 0 -21 -7 -40z m3897 -18 c-3
-8 -6 -5 -6 6 -1 11 2 17 5 13 3 -3 4 -12 1 -19z m-3787 -285 c0 -5 -11 -26
-25 -48 -28 -45 -30 -57 -12 -54 31 4 33 -1 26 -53 -4 -29 -8 -95 -8 -145 -1
-58 -5 -93 -11 -93 -19 0 -146 -119 -208 -195 -18 -22 -31 -33 -29 -25 2 8 -3
20 -10 25 -13 9 -13 29 -3 129 9 97 19 136 52 219 65 166 101 218 163 239 28
9 65 9 65 1z m3920 -360 c0 -22 -2 -25 -10 -13 -13 20 -13 40 0 40 6 0 10 -12
10 -27z m-3948 -106 c-4 -50 -9 -61 -32 -75 -48 -30 -116 -122 -90 -122 6 0
10 -9 10 -21 0 -12 13 -33 29 -48 23 -22 28 -34 24 -52 -9 -33 -70 -144 -88
-159 -13 -11 -15 -7 -15 24 0 22 -4 35 -10 31 -5 -3 -10 -16 -10 -28 -1 -12
-7 -33 -14 -47 -13 -23 -15 -18 -23 70 -4 52 -7 111 -5 130 2 29 0 32 -9 17
-7 -13 -9 -73 -4 -193 4 -128 3 -174 -6 -174 -6 0 -8 7 -5 16 9 22 -4 85 -15
78 -5 -3 -9 5 -9 18 0 13 -7 46 -15 73 -17 53 -13 101 7 89 7 -5 9 1 4 20 -8
31 19 96 40 96 8 0 14 4 14 9 0 5 3 18 7 28 6 16 5 16 -10 4 -10 -8 -17 -9
-17 -3 0 6 5 14 10 17 6 3 10 15 10 26 0 31 62 106 147 176 42 35 77 62 78 61
1 -2 0 -29 -3 -61z m3958 -57 c0 -5 -7 -7 -15 -4 -8 4 -15 8 -15 10 0 2 7 4
15 4 8 0 15 -4 15 -10z m-4000 -119 c0 -6 -4 -13 -10 -16 -5 -3 -10 -19 -10
-36 0 -16 -5 -29 -11 -29 -7 0 -9 10 -5 25 4 15 2 25 -4 25 -7 0 -7 6 0 20 11
20 40 28 40 11z m-223 -33 c-3 -8 -6 -5 -6 6 -1 11 2 17 5 13 3 -3 4 -12 1
-19z m-26 -45 c-8 -15 -10 -15 -11 -2 0 17 10 32 18 25 2 -3 -1 -13 -7 -23z
m6232 -93 c10 -17 15 -35 12 -40 -3 -6 1 -13 9 -16 9 -3 16 -12 16 -19 0 -8
12 -23 26 -34 24 -19 24 -26 2 -22 -5 0 -8 -5 -8 -13 0 -8 -9 -21 -20 -29 -11
-8 -23 -27 -25 -43 -3 -16 -8 -43 -11 -61 -6 -29 -3 -33 30 -47 25 -10 37 -23
41 -43 4 -15 14 -45 23 -67 25 -60 19 -89 -36 -180 -13 -22 -25 -44 -26 -50
-12 -58 -33 -104 -64 -138 l-36 -40 -76 6 c-104 9 -169 32 -181 63 -16 44 -10
108 15 155 37 70 56 88 93 88 17 0 38 6 45 14 8 7 24 17 36 20 19 6 28 19 20
29 -2 2 9 15 24 29 15 14 25 28 21 31 -3 4 0 13 6 21 14 17 6 76 -10 76 -6 0
-8 4 -5 9 3 5 -5 12 -18 15 -23 6 -95 96 -77 96 4 0 6 22 3 49 -3 36 0 56 14
77 48 75 71 94 108 94 25 0 36 -7 49 -30z m870 -116 c4 -1 8 -2 10 -4 1 -1 16
-4 32 -6 31 -5 46 -14 133 -74 67 -47 85 -79 85 -155 0 -33 -3 -66 -7 -73 -4
-7 -27 -12 -51 -12 -38 0 -47 -4 -62 -27 -83 -135 -90 -143 -139 -143 -14 0
-35 -6 -47 -14 -12 -8 -43 -17 -69 -20 -45 -7 -47 -6 -91 39 -25 25 -52 45
-61 45 -9 0 -26 11 -38 26 -18 20 -23 39 -25 97 -1 40 -4 85 -6 100 -4 23 3
36 42 77 42 44 53 50 88 50 61 0 97 17 117 54 19 35 53 58 71 47 6 -3 13 -6
18 -7z m-6949 -48 c-7 -18 -32 -28 -39 -16 -3 5 3 13 12 19 25 14 33 13 27 -3z
m4257 -23 c-12 -20 -14 -14 -5 12 4 9 9 14 11 11 3 -2 0 -13 -6 -23z m-4382
-80 c0 -36 -2 -43 -9 -27 -7 18 -3 74 6 74 2 0 4 -21 3 -47z m8005 -39 c10
-26 -10 -52 -38 -47 -18 4 -23 10 -18 22 15 39 45 53 56 25z m-3704 -31 c-1
-24 -2 -26 -11 -10 -5 9 -7 22 -4 27 10 17 15 11 15 -17z m47 -149 c7 -32 7
-44 -1 -44 -8 0 -8 -2 0 -8 6 -4 15 -18 19 -32 4 -14 16 -31 26 -38 11 -7 19
-21 19 -30 -1 -13 -7 -9 -25 13 -14 17 -25 35 -25 41 0 6 -6 17 -14 23 -9 8
-13 24 -10 44 3 22 -2 42 -15 62 -22 31 -29 19 -10 -18 10 -21 10 -21 -5 -3
-17 22 -19 35 -9 61 5 16 8 15 23 -5 10 -13 22 -43 27 -66z m1712 5 c-22 -13
-31 -11 -17 5 7 8 17 12 22 9 4 -3 2 -9 -5 -14z m-1731 -144 c14 -29 -2 -44
-17 -16 -6 11 -11 24 -11 30 0 20 17 11 28 -14z m192 -175 c45 -69 92 -136
104 -150 19 -22 19 -23 1 -10 -30 23 -37 30 -80 94 -26 38 -41 53 -43 42 -5
-21 -10 -20 -33 7 -32 36 -61 109 -54 136 8 30 5 33 105 -119z m3619 39 c28
-8 38 -15 29 -21 -10 -6 -10 -8 0 -8 6 0 12 -10 12 -23 0 -27 -15 -47 -53 -71
-41 -25 -67 -13 -67 32 0 64 12 113 25 108 7 -2 32 -10 54 -17z m-3796 -149
c5 -8 -5 1 -22 20 -17 19 -31 38 -31 43 0 9 32 -29 53 -63z m107 -84 c0 -12
-5 -7 -19 24 -11 24 -11 24 3 6 9 -11 16 -24 16 -30z m255 -68 c15 -27 25 -48
22 -48 -3 0 -21 28 -42 63 -20 34 -30 55 -22 47 8 -8 27 -36 42 -62z m-55 42
c6 -11 8 -20 6 -20 -3 0 -10 9 -16 20 -6 11 -8 20 -6 20 3 0 10 -9 16 -20z
m-4860 -4 c0 -9 -30 -14 -35 -6 -4 6 3 10 14 10 12 0 21 -2 21 -4z m4910 -81
c0 -5 -5 -3 -10 5 -5 8 -10 20 -10 25 0 6 5 3 10 -5 5 -8 10 -19 10 -25z
m-5067 -127 c-83 -102 -153 -159 -138 -115 2 7 9 31 15 55 9 33 15 42 33 42
12 1 40 11 62 24 47 27 54 26 28 -6z m-173 -40 c0 -5 5 -6 10 -3 15 9 12 -20
-7 -62 -10 -21 -19 -40 -20 -42 -2 -2 -12 4 -22 13 -15 14 -18 23 -11 39 5 12
11 34 14 49 4 19 11 26 21 22 8 -4 15 -10 15 -16z m5327 0 c-3 -8 -6 -5 -6 6
-1 11 2 17 5 13 3 -3 4 -12 1 -19z m-5038 -118 c-14 -47 -21 -140 -9 -120 7
12 11 10 19 -10 7 -19 6 -28 -5 -36 -8 -6 -14 -20 -14 -31 0 -11 -9 -56 -21
-99 -11 -44 -27 -104 -34 -135 -25 -109 -51 -173 -101 -244 -11 -16 -31 -64
-44 -105 -13 -41 -31 -102 -42 -135 l-18 -60 4 56 c3 38 -1 66 -10 85 -10 19
-11 25 -3 17 20 -20 26 -16 40 32 7 25 17 45 20 45 4 0 -3 20 -17 44 -19 34
-25 60 -26 113 0 37 -4 73 -8 78 -7 8 -15 83 -20 185 -3 63 7 150 20 164 8 10
50 42 95 71 44 30 100 72 125 94 51 44 65 42 49 -9z m-420 -46 c48 -14 88 -28
90 -30 4 -3 -101 -106 -163 -160 -17 -16 -18 -27 -12 -148 4 -72 9 -171 10
-221 2 -78 7 -102 40 -180 46 -110 57 -145 46 -145 -4 0 -15 16 -25 36 -9 20
-18 34 -20 32 -1 -2 4 -41 11 -88 19 -116 17 -235 -5 -253 -25 -22 -177 -124
-212 -142 -16 -9 -66 -47 -109 -86 -79 -69 -79 -70 -106 -159 -15 -49 -31 -87
-35 -84 -5 3 -9 1 -9 -5 0 -14 -47 6 -76 31 -20 18 -22 18 -52 1 -32 -18 -32
-18 -57 9 -14 15 -40 35 -58 44 -64 32 -187 107 -187 114 0 3 -9 16 -21 29
-11 12 -34 52 -51 88 -56 123 -101 163 -188 163 -63 0 -168 38 -211 77 -48 43
-64 111 -55 228 6 73 4 85 -19 130 -30 60 -30 63 -7 89 10 12 24 41 31 65 7
24 23 54 36 67 26 26 61 159 51 192 -4 12 4 30 25 53 17 19 37 46 45 61 7 15
23 30 35 33 11 4 26 20 33 36 23 54 252 147 317 129 17 -5 66 -14 108 -20 65
-9 80 -14 104 -41 23 -25 33 -29 58 -24 22 5 41 0 79 -24 28 -17 60 -31 73
-31 12 0 44 18 71 40 26 22 52 40 56 40 5 0 10 12 12 28 l3 27 87 2 c47 0 95
6 105 12 28 16 60 13 152 -15z m114 -223 c-5 -3 -9 -60 -10 -126 0 -142 -12
-295 -23 -295 -16 0 -28 28 -49 110 -29 112 -37 210 -21 239 6 13 33 51 58 85
l47 61 3 -34 c2 -19 0 -37 -5 -40z m5367 -175 c0 -6 -7 -2 -15 8 -8 11 -15 25
-15 30 0 6 7 2 15 -8 8 -11 15 -25 15 -30z m17 -158 c-3 -7 -5 -2 -5 12 0 14
2 19 5 13 2 -7 2 -19 0 -25z m-5550 -90 c-3 -8 -6 -5 -6 6 -1 11 2 17 5 13 3
-3 4 -12 1 -19z m5559 -74 c-7 -25 -26 -34 -26 -11 0 7 6 25 13 40 14 31 23
11 13 -29z m-26 -96 c0 -21 -3 -29 -10 -22 -5 5 -7 19 -4 32 9 31 14 27 14
-10z m-120 -42 c-1 -19 -2 -19 -15 4 -20 35 -19 62 0 36 8 -11 15 -29 15 -40z
m78 -62 c-12 -50 -28 -80 -28 -53 0 17 32 110 37 105 2 -2 -2 -25 -9 -52z m18
-34 c-7 -30 -15 -50 -18 -45 -6 10 20 110 27 104 2 -2 -2 -29 -9 -59z m-8293
26 c12 -8 35 -14 50 -14 15 0 38 -9 51 -21 27 -25 44 -26 75 -5 18 13 36 15
89 9 126 -12 163 -32 217 -112 27 -39 70 -73 94 -73 16 0 86 -54 154 -119 40
-39 47 -51 48 -86 0 -22 8 -103 17 -180 16 -131 19 -140 40 -143 38 -6 52 -39
52 -127 0 -44 7 -107 15 -140 22 -91 20 -123 -9 -137 -30 -13 -39 -33 -26 -58
21 -39 8 -170 -16 -170 -8 0 -14 -5 -14 -11 0 -6 6 -9 13 -6 11 4 13 -6 9 -46
-4 -41 -11 -57 -41 -87 -45 -46 -91 -121 -91 -150 0 -12 -16 -38 -35 -57 l-35
-35 -31 24 c-53 40 -71 47 -90 37 -10 -5 -42 -9 -72 -9 -63 0 -107 27 -107 64
0 13 -13 34 -28 47 -16 13 -34 39 -41 57 -8 17 -17 32 -21 32 -16 0 -49 38
-73 85 -35 70 -68 99 -134 120 -87 27 -101 35 -113 66 -11 24 -8 41 15 111 25
74 26 86 16 136 -17 86 -47 109 -203 156 -92 28 -158 70 -194 123 -11 17 -29
66 -39 109 -10 44 -22 86 -26 95 -5 9 -44 35 -88 58 -68 35 -81 46 -95 81 -22
55 -20 73 12 165 37 103 44 116 87 154 40 35 37 34 120 32 38 -1 71 4 89 14
23 12 59 15 168 14 76 -1 141 1 145 4 10 10 21 8 46 -7z m11834 -155 c17 0 45
-12 61 -26 36 -30 53 -31 77 -5 24 26 49 25 62 -2 54 -113 72 -161 78 -206 l7
-53 -59 -57 c-45 -44 -100 -79 -238 -152 -172 -91 -183 -95 -252 -98 -71 -4
-74 -3 -103 28 -16 17 -44 60 -61 95 -36 73 -35 101 8 217 31 83 96 155 178
196 33 16 76 38 95 48 32 17 54 20 147 15z m-13560 -1923 c-3 -8 -6 -5 -6 6
-1 11 2 17 5 13 3 -3 4 -12 1 -19z m11740 -2519 c-14 -35 -20 -36 -35 -5 -12
28 0 46 28 39 15 -4 16 -9 7 -34z m-70 -31 c-3 -8 -6 -5 -6 6 -1 11 2 17 5 13
3 -3 4 -12 1 -19z m10 -40 c-3 -8 -6 -5 -6 6 -1 11 2 17 5 13 3 -3 4 -12 1
-19z"/>
<path d="M9291 9715 c0 -5 6 -21 14 -35 8 -14 14 -20 14 -15 0 6 -6 21 -14 35
-8 14 -14 21 -14 15z"/>
<path d="M4988 5985 c-4 -22 -10 -51 -14 -65 l-6 -25 16 23 c11 14 16 36 14
65 l-3 42 -7 -40z"/>
<path d="M4851 5839 c14 -15 29 -33 32 -40 4 -9 6 -10 6 -2 1 9 8 10 27 2 15
-5 28 -8 31 -6 5 6 -75 57 -90 57 -7 0 -17 3 -23 8 -5 4 2 -5 17 -19z"/>
<path d="M7279 11950 c-1 -5 -2 -16 -3 -22 -1 -7 -5 -17 -11 -21 -6 -5 -3 -7
6 -4 9 3 22 0 28 -6 8 -8 11 -8 11 1 0 7 -5 12 -11 12 -5 0 -7 5 -4 10 3 6 2
10 -4 10 -6 0 -8 7 -5 15 4 8 3 15 0 15 -3 0 -7 -4 -7 -10z"/>
<path d="M0 9605 l1 -2100 20 28 c11 15 27 27 35 27 8 0 20 13 25 29 6 17 19
47 30 67 10 21 19 43 19 49 1 5 19 28 40 50 22 22 40 45 40 51 0 7 29 13 79
16 44 3 86 10 93 16 8 6 36 18 63 28 28 9 77 29 111 45 47 22 74 29 120 28 33
-1 80 6 107 15 62 22 143 13 193 -20 19 -14 39 -22 44 -19 15 9 41 -7 56 -36
11 -23 21 -29 47 -29 18 0 70 -18 115 -40 89 -44 102 -47 102 -25 0 20 -21 65
-31 65 -4 0 -11 10 -15 23 -4 12 -26 42 -50 66 -24 24 -44 46 -44 50 0 17
-106 95 -132 97 -17 1 -37 12 -49 28 -11 14 -27 26 -35 26 -8 0 -18 10 -23 23
-11 31 -5 221 8 245 6 11 30 35 53 53 70 54 139 131 151 169 9 25 20 37 42 43
17 5 43 15 58 23 16 8 33 12 38 9 5 -4 30 4 56 15 63 29 212 37 273 15 23 -8
44 -15 46 -15 3 0 4 30 3 68 0 37 4 81 11 97 6 17 11 57 10 90 -3 83 -3 82 27
97 33 16 50 47 63 119 8 43 7 57 -6 77 -14 22 -14 25 2 43 18 21 46 18 75 -7
13 -12 18 -11 37 2 12 8 22 21 22 28 0 17 49 50 72 49 9 -1 43 27 76 62 47 49
65 62 81 58 12 -3 21 -9 21 -13 0 -5 13 -8 29 -8 26 1 29 5 35 46 7 50 2 62
-16 44 -7 -7 -16 -12 -21 -12 -10 0 -2 66 15 118 7 24 7 37 -3 48 -17 20 -13
86 7 132 10 20 18 60 19 87 3 64 32 162 59 199 11 15 53 63 91 105 86 92 121
145 137 207 l13 46 -39 33 c-37 31 -39 35 -37 86 1 51 -1 56 -38 89 -22 20
-51 62 -66 95 -24 52 -28 71 -26 149 2 83 1 88 -15 75 -14 -11 -109 -150 -192
-282 -16 -25 -135 -97 -161 -97 -30 0 -158 -72 -183 -103 -35 -45 -136 -92
-216 -100 -35 -4 -72 -12 -84 -18 -32 -17 -92 -3 -185 43 -81 40 -156 106
-262 230 -39 45 -58 95 -42 111 6 6 11 35 11 64 0 60 -29 127 -70 158 -14 10
-39 34 -57 52 -31 32 -33 33 -121 33 -85 0 -90 1 -114 29 -34 38 -48 65 -48
92 0 12 -11 41 -25 64 -20 35 -33 45 -71 56 -33 10 -53 23 -65 43 -10 16 -36
42 -59 57 -23 15 -57 48 -75 73 -23 29 -45 47 -65 51 -17 4 -43 17 -58 29 -49
41 -99 66 -129 66 -16 0 -34 5 -41 12 -9 9 -12 -455 -12 -2087z m1488 428 c29
-25 62 -93 62 -127 0 -51 22 -107 46 -117 26 -9 54 -57 54 -90 0 -61 49 -119
100 -119 29 0 41 -31 28 -73 -14 -46 -41 -75 -76 -83 -15 -3 -37 -10 -49 -16
-25 -12 -57 -5 -165 36 -127 48 -142 62 -240 226 -39 66 -45 83 -47 141 -3 76
19 164 51 204 l21 26 24 -40 c13 -23 28 -41 33 -41 5 0 26 20 47 45 41 50 75
58 111 28z m-980 -545 c2 -19 -1 -28 -10 -28 -20 0 -38 21 -38 43 0 32 44 18
48 -15z"/>
<path d="M1585 9570 c-19 -37 -6 -70 28 -70 45 0 62 30 40 73 -18 36 -48 35
-68 -3z"/>
<path d="M6161 11623 c0 -11 3 -13 6 -5 7 18 21 15 28 -8 3 -11 13 -20 20 -20
9 0 12 -7 9 -17 -5 -16 -3 -15 10 1 9 11 19 17 22 13 4 -3 -1 -13 -10 -22 -18
-18 -21 -30 -6 -20 6 3 10 1 10 -4 0 -17 14 -13 27 9 19 29 7 44 -50 68 -63
27 -67 27 -66 5z"/>
<path d="M6133 11375 c-3 -9 -3 -18 -1 -21 3 -3 8 4 11 16 6 23 -1 27 -10 5z"/>
<path d="M6119 11298 c-5 -16 -4 -46 2 -42 4 2 7 13 6 24 -1 17 -5 26 -8 18z"/>
<path d="M3310 10785 c-18 -20 -29 -23 -64 -19 -22 3 -48 7 -57 10 -10 3 -23
-6 -34 -22 -22 -34 -14 -79 20 -110 14 -13 26 -33 27 -46 0 -13 2 -29 2 -37 1
-16 26 -28 26 -13 0 6 16 8 38 5 39 -5 39 -5 69 53 17 33 39 63 50 68 32 15
44 41 33 71 -5 14 -16 25 -23 25 -8 0 -26 9 -39 20 l-25 19 -23 -24z"/>
<path d="M5554 9458 l-19 -23 23 19 c12 11 22 21 22 23 0 8 -8 2 -26 -19z"/>
<path d="M5497 9405 c-29 -27 -33 -35 -18 -35 5 0 19 14 31 30 26 37 23 38
-13 5z"/>
<path d="M11610 8400 c0 -11 -9 -35 -20 -55 -13 -23 -18 -45 -14 -61 4 -14 9
-23 12 -20 3 3 11 -2 17 -11 11 -14 16 -15 28 -5 13 11 17 7 28 -25 7 -21 12
-45 10 -52 -4 -23 28 -42 51 -30 22 12 52 4 43 -11 -3 -6 4 -10 16 -10 18 0
20 3 11 12 -16 16 -15 28 3 28 20 0 20 -46 -1 -54 -9 -3 -14 -13 -10 -21 6
-18 -12 -75 -25 -75 -5 0 -9 -9 -9 -20 0 -13 -5 -18 -15 -14 -8 4 -15 1 -15
-5 0 -34 116 -44 140 -12 7 11 17 18 20 16 19 -12 45 39 47 91 l2 54 -42 20
c-40 20 -42 20 -55 3 -11 -16 -12 -13 -7 22 6 38 4 41 -27 55 -29 13 -33 20
-35 58 -2 24 -9 49 -16 57 -18 17 -84 28 -92 15 -3 -6 -13 -10 -22 -10 -13 0
-14 8 -9 40 4 25 2 40 -4 40 -5 0 -10 -9 -10 -20z"/>
<path d="M5138 8320 c-9 -17 -13 -30 -9 -30 14 0 33 28 29 44 -2 11 -8 7 -20
-14z"/>
<path d="M5233 8268 c-42 -81 -65 -142 -47 -127 8 6 14 17 14 24 0 8 16 44 35
81 19 37 33 69 31 72 -3 2 -17 -20 -33 -50z"/>
<path d="M9621 8194 c0 -11 3 -14 6 -6 3 7 2 16 -1 19 -3 4 -6 -2 -5 -13z"/>
<path d="M11486 8101 c-3 -5 1 -11 9 -15 8 -3 15 -1 15 4 0 13 -18 22 -24 11z"/>
<path d="M5130 8050 c-6 -11 -8 -20 -6 -20 3 0 10 9 16 20 6 11 8 20 6 20 -3
0 -10 -9 -16 -20z"/>
<path d="M12008 7969 c-46 -34 -40 -44 52 -82 56 -24 73 -19 66 17 -7 34 -40
71 -71 80 -12 3 -31 -3 -47 -15z"/>
<path d="M5101 7864 c0 -11 3 -14 6 -6 3 7 2 16 -1 19 -3 4 -6 -2 -5 -13z"/>
<path d="M3693 7841 c-2 -22 3 -32 17 -36 11 -4 20 -11 20 -16 0 -14 34 -44
53 -45 27 -3 30 33 6 81 -20 41 -26 45 -58 45 -33 0 -36 -3 -38 -29z"/>
<path d="M3660 7839 c0 -5 5 -7 10 -4 6 3 10 8 10 11 0 2 -4 4 -10 4 -5 0 -10
-5 -10 -11z"/>
<path d="M182 7411 c-11 -6 -7 -13 16 -30 35 -24 49 -15 26 17 -17 24 -22 26
-42 13z"/>
<path d="M3255 1418 c10 -31 25 -47 25 -26 0 24 -11 48 -22 48 -5 0 -6 -10 -3
-22z"/>
</g>
</svg>
